<svg width="561" height="426" viewBox="0 0 561 426" fill="none" xmlns="http://www.w3.org/2000/svg">
<g id="Frame 9">
<rect id="Rectangle 5" y="22" width="560" height="315" fill="#C29069"/>
<g id="plate">
<path id="Vector" d="M316.373 302.54C316.146 302.731 308.65 308.854 285.181 308.854C261.339 308.854 253.37 302.536 253.37 302.536C263.673 304.529 274.145 305.515 284.639 305.48C295.287 305.521 305.914 304.536 316.373 302.54V302.54Z" fill="#43474D"/>
<path id="Vector_2" d="M349.798 290.644L349.48 290.85C349.238 291.009 338.112 298.299 316.38 302.536C305.919 304.534 295.289 305.52 284.639 305.48C274.146 305.519 263.674 304.538 253.37 302.551C230.754 298.104 219.017 290.16 219.017 290.16L218.912 290.117L218.717 290.03C233.629 296.543 257.763 300.784 285 300.784C294.415 300.8 303.823 300.27 313.176 299.198C327.774 297.493 340.431 294.499 349.798 290.644Z" fill="#838690"/>
<path id="Vector_3" d="M359.595 282.542C347.313 289.767 347.313 290.85 359.396 285.62C356.469 287.568 353.349 289.212 350.087 290.525L349.798 290.644C340.431 294.499 327.763 297.508 313.173 299.198L294.584 299.52C268.575 299.881 242.566 296.269 229.561 291.573C216.557 286.877 214.751 285.793 207.526 280.013C200.457 274.36 208.184 265.521 208.523 265.141C214.726 260.033 225.794 255.706 239.911 252.733C252.85 249.991 268.34 248.405 285 248.405C301.721 248.405 317.276 250.006 330.244 252.74C342.588 255.355 352.59 259.007 359.028 263.306C359.559 263.823 371.617 275.469 359.595 282.542Z" fill="#ACB1BA"/>
<path id="Vector_4" d="M285.181 297.352C301.34 297.352 314.441 294.522 314.441 291.031C314.441 287.539 301.34 284.709 285.181 284.709C269.021 284.709 255.921 287.539 255.921 291.031C255.921 294.522 269.021 297.352 285.181 297.352Z" fill="#989EA8"/>
<path id="Vector_5" d="M313.176 299.198C303.823 300.27 294.415 300.8 285 300.784C257.763 300.784 233.629 296.543 218.717 290.016C208.834 285.681 203 280.36 203 274.595C203 271.261 204.954 268.071 208.512 265.141C208.173 265.521 200.446 274.36 207.515 280.013C214.74 285.793 216.546 286.877 229.551 291.573C242.555 296.269 268.564 299.881 294.573 299.52L313.176 299.198Z" fill="#DBDFE6"/>
<path id="Vector_6" d="M367 274.595C367 278.532 364.28 282.264 359.414 285.612C347.324 290.843 347.334 289.756 359.613 282.535C371.635 275.462 359.577 263.815 359.064 263.324C364.146 266.741 367 270.56 367 274.595Z" fill="#C4C9D1"/>
</g>
<path id="preloader2" d="M323.475 261.189L307.397 290.67C307.397 293.863 297.044 296.449 284.278 296.449C271.512 296.449 261.159 293.863 261.159 290.67L246.308 260.969C231.458 231.268 238.04 217.881 238.04 217.881C238.04 217.957 238.04 218.029 238.04 218.109C238.126 218.858 238.428 219.566 238.91 220.146C239.019 220.283 239.138 220.417 239.271 220.554C240.268 221.547 241.424 222.365 242.692 222.974C250.278 226.908 266.378 229.614 284.996 229.614C302.888 229.614 318.45 227.111 326.372 223.43C327.871 222.788 329.255 221.904 330.468 220.814L330.501 220.785C331.379 219.922 331.877 219.026 331.946 218.105C331.946 218.033 331.946 217.957 331.946 217.885C331.96 217.881 339.734 231.528 323.475 261.189Z" fill="#632A19"/>
<g id="cup">
<path id="Vector_7" opacity="0.5" d="M337.379 221.674C337.018 226.872 334.359 255.67 311.822 287.982C309.839 290.803 306.91 292.818 303.567 293.661C295.458 295.731 279.383 298.631 265.334 293.874C262.586 292.924 260.244 291.063 258.699 288.6C254.078 281.321 249.828 273.814 245.965 266.106C244.032 262.23 242.125 258.112 240.388 253.9C235.832 242.86 232.441 231.142 232.849 221.367C232.907 219.84 233.074 218.319 233.347 216.815L244.09 216.696L323.666 215.822L335.739 215.688C335.847 215.706 337.74 216.411 337.379 221.674Z" fill="#CBD1DB"/>
<path id="Vector_8" d="M335.934 216.797C335.934 222.794 319.476 227.829 297.239 229.231C293.207 229.488 288.984 229.621 284.639 229.621C280.792 229.621 277.053 229.516 273.441 229.314C250.499 228.039 233.344 222.92 233.344 216.797C233.35 216.214 233.498 215.641 233.777 215.128C236.562 209.761 252.619 205.44 273.441 204.291C277.053 204.089 280.792 203.984 284.639 203.984C288.974 203.984 293.207 204.118 297.239 204.375C318.067 205.689 333.824 210.187 335.735 215.681C335.864 216.039 335.931 216.417 335.934 216.797Z" fill="#E1E7F1"/>
</g>
<g id="handle" opacity="0.7">
<path id="Vector_9" opacity="0.7" d="M236.75 259.058C238.511 260.254 240.48 261.112 242.555 261.587C242.555 261.587 228.106 250.388 219.436 237.745C210.864 225.247 221.842 216.552 222.091 216.357C227.477 214.298 233.773 215.128 233.773 215.128C233.495 215.641 233.346 216.214 233.34 216.797C233.066 218.301 232.9 219.822 232.842 221.349C221.51 215.967 219.617 222.396 221.062 231.789C222.507 241.101 240.084 253.669 240.384 253.882C242.122 258.094 244.029 262.212 245.962 266.088C242.523 263.617 239.463 261.265 236.75 259.058Z" fill="#C8CED2"/>
<path id="Vector_10" opacity="0.7" d="M242.555 261.59C240.48 261.116 238.511 260.258 236.75 259.062L235.583 258.101C228.655 252.361 224.132 247.661 221.358 244.432C218.169 240.757 215.98 236.323 215 231.557C213.161 222.378 217.258 218.192 222.091 216.364C221.842 216.559 210.864 225.254 219.436 237.753C228.106 250.392 242.555 261.59 242.555 261.59Z" fill="#D5DCE4"/>
</g>
<g id="halfmoon">
<circle id="Ellipse 2" cx="293" cy="135" r="17" fill="black"/>
<path id="halfmoon_2" d="M307.866 143.099C306.603 145.417 304.817 147.409 302.65 148.916C300.483 150.423 297.994 151.404 295.381 151.781C292.768 152.158 290.103 151.92 287.598 151.087C285.093 150.254 282.817 148.848 280.95 146.981C279.084 145.115 277.678 142.838 276.846 140.333C276.013 137.828 275.776 135.163 276.153 132.55C276.53 129.937 277.512 127.449 279.019 125.282C280.527 123.114 282.519 121.329 284.837 120.066C283.084 123.285 282.42 126.984 282.943 130.612C283.466 134.239 285.149 137.6 287.741 140.192C290.332 142.784 293.693 144.467 297.32 144.991C300.948 145.515 304.647 144.851 307.866 143.099V143.099Z" fill="black"/>
</g>
<path id="preloader1" d="M309.925 134.718C309.976 137.643 309.264 140.532 307.859 143.098C307.242 143.44 306.605 143.744 305.952 144.009H305.923H305.897H305.858C305.601 144.11 305.345 144.204 305.085 144.291C304.757 144.405 304.443 144.553 304.145 144.731H304.12C301.653 146.176 297.542 150.352 297.257 162.432V229.231C293.225 229.487 289.002 229.621 284.657 229.621C280.81 229.621 277.071 229.516 273.459 229.314V162.356C273.878 145.421 288.992 141.997 289.689 141.849C286.388 139.414 284.08 135.867 283.192 131.863C282.303 127.859 282.894 123.668 284.856 120.066C287.421 118.675 290.302 117.968 293.221 118.015C296.139 118.062 298.996 118.86 301.516 120.333C304.036 121.805 306.134 123.903 307.607 126.423C309.08 128.943 309.878 131.8 309.925 134.718Z" fill="#82391D"/>
<path id="ellipses" d="M331.96 217.881C331.96 217.953 331.96 218.029 331.96 218.101C331.888 219.023 331.39 219.908 330.515 220.782L330.483 220.811C329.27 221.901 327.886 222.784 326.387 223.426C318.465 227.107 302.906 229.61 285.011 229.61C266.393 229.61 250.304 226.905 242.707 222.971C241.439 222.362 240.282 221.544 239.286 220.551C239.156 220.413 239.037 220.28 238.925 220.142C238.443 219.562 238.14 218.854 238.054 218.105V218.105C238.054 218.026 238.054 217.953 238.054 217.877C238.06 217.343 238.197 216.819 238.451 216.349C241.439 210.57 261.155 206.137 285.014 206.137C309.557 206.137 329.706 210.833 331.791 216.844C331.903 217.179 331.96 217.529 331.96 217.881Z" fill="#82391D"/>
</g>
</svg>
