<svg width="561" height="426" viewBox="0 0 561 426" fill="none" xmlns="http://www.w3.org/2000/svg">
<g id="Frame 9">
<rect id="Rectangle 5" y="22" width="560" height="315" fill="#C29069"/>
<g id="plate">
<path id="Vector" d="M316.373 302.681C316.146 302.872 308.65 309 285.181 309C261.339 309 253.37 302.677 253.37 302.677C263.673 304.671 274.145 305.658 284.639 305.623C295.287 305.664 305.914 304.679 316.373 302.681V302.681Z" fill="#43474D"/>
<path id="Vector_2" d="M349.798 290.776L349.48 290.982C349.238 291.141 338.112 298.437 316.38 302.677C305.919 304.677 295.289 305.663 284.639 305.624C274.146 305.663 263.674 304.681 253.37 302.692C230.754 298.242 219.017 290.292 219.017 290.292L218.912 290.249L218.717 290.162C233.629 296.68 257.763 300.924 285 300.924C294.415 300.939 303.823 300.409 313.176 299.337C327.774 297.631 340.431 294.634 349.798 290.776Z" fill="#838690"/>
<path id="Vector_3" d="M359.595 282.668C347.313 289.898 347.313 290.982 359.396 285.748C356.469 287.698 353.35 289.343 350.087 290.657L349.798 290.776C340.431 294.634 327.763 297.645 313.173 299.337L294.584 299.659C268.575 300.02 242.566 296.405 229.562 291.705C216.557 287.006 214.751 285.921 207.526 280.137C200.457 274.479 208.184 265.633 208.523 265.254C214.726 260.142 225.794 255.811 239.911 252.836C252.85 250.092 268.34 248.505 285 248.505C301.722 248.505 317.276 250.106 330.245 252.843C342.588 255.46 352.59 259.115 359.028 263.417C359.559 263.934 371.617 275.589 359.595 282.668Z" fill="#ACB1BA"/>
<path id="Vector_4" d="M285.181 297.49C301.34 297.49 314.441 294.657 314.441 291.163C314.441 287.669 301.34 284.837 285.181 284.837C269.021 284.837 255.921 287.669 255.921 291.163C255.921 294.657 269.021 297.49 285.181 297.49Z" fill="#989EA8"/>
<path id="Vector_5" d="M313.176 299.337C303.823 300.409 294.415 300.939 285 300.924C257.763 300.924 233.629 296.68 218.717 290.147C208.834 285.809 203 280.484 203 274.714C203 271.378 204.954 268.186 208.512 265.254C208.173 265.633 200.446 274.479 207.515 280.137C214.74 285.921 216.546 287.006 229.551 291.705C242.555 296.405 268.564 300.02 294.573 299.659L313.176 299.337Z" fill="#DBDFE6"/>
<path id="Vector_6" d="M367 274.714C367 278.655 364.28 282.389 359.414 285.74C347.324 290.975 347.334 289.887 359.613 282.66C371.635 275.582 359.577 263.927 359.064 263.435C364.146 266.855 367 270.676 367 274.714Z" fill="#C4C9D1"/>
</g>
<path id="progress3" d="M297 217V289.595C292.288 290.503 287.506 290.973 282.712 291C279.797 291.01 276.884 290.795 274 290.357V217H297Z" fill="#82391D"/>
<path id="progress2" d="M323.475 261.299L307.396 290.802C307.396 293.997 297.044 296.586 284.278 296.586C271.512 296.586 261.159 293.997 261.159 290.802L246.308 261.078C231.458 231.355 238.04 217.957 238.04 217.957C238.04 218.033 238.04 218.106 238.04 218.185C238.126 218.935 238.428 219.643 238.91 220.224C239.019 220.361 239.138 220.495 239.271 220.633C240.268 221.626 241.424 222.445 242.692 223.055C250.278 226.992 266.378 229.699 284.996 229.699C302.888 229.699 318.45 227.194 326.372 223.51C327.871 222.868 329.255 221.984 330.468 220.893L330.501 220.864C331.379 220 331.877 219.103 331.946 218.182C331.946 218.109 331.946 218.033 331.946 217.961C331.96 217.957 339.734 231.615 323.475 261.299Z" fill="#632A19"/>
<g id="cup">
<path id="Vector_7" opacity="0.5" d="M337.379 221.753C337.018 226.955 334.359 255.775 311.822 288.112C309.839 290.935 306.91 292.951 303.567 293.795C295.458 295.866 279.383 298.769 265.334 294.008C262.586 293.058 260.244 291.196 258.699 288.73C254.078 281.446 249.828 273.933 245.965 266.219C244.033 262.34 242.125 258.219 240.388 254.004C235.833 242.956 232.441 231.228 232.849 221.446C232.907 219.918 233.074 218.396 233.347 216.891C233.347 223.037 250.502 228.141 273.444 229.417C277.056 229.62 280.795 229.725 284.642 229.725C288.977 229.725 293.211 229.591 297.242 229.334C319.476 227.899 335.934 222.874 335.934 216.873C335.933 216.49 335.867 216.109 335.739 215.749C335.847 215.781 337.74 216.486 337.379 221.753Z" fill="#CBD1DB"/>
<path id="Vector_8" d="M335.934 216.873C335.934 222.874 319.476 227.913 297.239 229.316C293.207 229.573 288.984 229.706 284.639 229.706C280.792 229.706 277.053 229.602 273.441 229.399C250.499 228.123 233.344 223 233.344 216.873C233.35 216.289 233.498 215.716 233.777 215.203C236.562 209.831 252.619 205.507 273.441 204.357C277.053 204.155 280.792 204.05 284.639 204.05C288.974 204.05 293.207 204.184 297.239 204.441C318.067 205.756 333.824 210.257 335.735 215.756C335.864 216.114 335.931 216.492 335.934 216.873Z" fill="#CBD1DB"/>
</g>
<path id="ellipses" d="M331.96 217.957C331.96 218.03 331.96 218.106 331.96 218.178C331.888 219.1 331.39 219.985 330.515 220.86L330.483 220.889C329.27 221.98 327.886 222.864 326.387 223.507C318.465 227.19 302.906 229.696 285.011 229.696C266.393 229.696 250.304 226.988 242.707 223.051C241.439 222.442 240.282 221.623 239.286 220.629C239.156 220.492 239.037 220.358 238.925 220.22C238.443 219.64 238.14 218.931 238.054 218.182V218.182C238.054 218.102 238.054 218.03 238.054 217.954C238.06 217.419 238.197 216.894 238.451 216.425C241.439 210.64 261.155 206.205 285.014 206.205C309.557 206.205 329.706 210.904 331.791 216.92C331.903 217.254 331.96 217.605 331.96 217.957Z" fill="#82391D"/>
<g id="handle" opacity="0.7">
<path id="Vector_9" opacity="0.7" d="M236.75 259.166C238.511 260.363 240.48 261.221 242.555 261.696C242.555 261.696 228.106 250.49 219.436 237.837C210.864 225.329 221.842 216.627 222.091 216.432C227.477 214.371 233.773 215.203 233.773 215.203C233.495 215.716 233.346 216.289 233.34 216.873C233.066 218.378 232.9 219.9 232.841 221.428C221.51 216.041 219.617 222.476 221.062 231.876C222.507 241.195 240.084 253.772 240.384 253.985C242.122 258.201 244.029 262.322 245.961 266.201C242.523 263.728 239.463 261.375 236.75 259.166Z" fill="#C8CED2"/>
<path id="Vector_10" opacity="0.7" d="M242.555 261.7C240.48 261.225 238.511 260.367 236.75 259.17L235.583 258.208C228.655 252.464 224.132 247.76 221.358 244.528C218.169 240.851 215.98 236.414 215 231.644C213.161 222.458 217.258 218.268 222.091 216.439C221.842 216.634 210.864 225.336 219.436 237.844C228.106 250.493 242.555 261.7 242.555 261.7Z" fill="#D5DCE4"/>
</g>
<g id="halfmoon">
<circle id="Ellipse 2" cx="293" cy="135" r="17" fill="black"/>
<path id="Vector_11" d="M307.866 143.118C305.988 146.562 302.979 149.253 299.348 150.735C295.328 152.378 290.831 152.417 286.783 150.844C282.735 149.27 279.443 146.205 277.585 142.277C275.726 138.349 275.442 133.858 276.791 129.727C278.14 125.596 281.02 122.139 284.837 120.068C283.478 122.56 282.767 125.355 282.771 128.195C282.771 128.339 282.771 128.487 282.771 128.632C282.771 128.777 282.771 128.813 282.771 128.903C282.771 128.993 282.771 129.109 282.771 129.214C282.769 129.237 282.769 129.26 282.771 129.283C282.771 129.438 282.793 129.597 282.807 129.753C282.822 129.908 282.84 130.114 282.861 130.266C282.883 130.418 282.905 130.628 282.93 130.783C282.955 130.938 282.984 131.112 283.013 131.275C283.042 131.437 283.071 131.586 283.104 131.737C283.136 131.889 283.158 131.983 283.187 132.099C283.215 132.215 283.237 132.305 283.262 132.403C283.288 132.5 283.32 132.627 283.353 132.739C283.385 132.851 283.443 133.06 283.494 133.22C283.671 133.8 283.881 134.369 284.122 134.926C284.158 135.013 284.198 135.096 284.234 135.179C284.35 135.428 284.469 135.678 284.595 135.92C284.66 136.043 284.722 136.166 284.787 136.282C284.852 136.397 284.921 136.52 284.989 136.643C285.058 136.766 285.126 136.882 285.199 137.005C285.271 137.127 285.34 137.236 285.415 137.366C285.491 137.496 285.564 137.594 285.639 137.706C285.791 137.934 285.95 138.158 286.113 138.375C286.192 138.483 286.275 138.592 286.362 138.696C286.6 139.004 286.853 139.304 287.117 139.593C287.218 139.705 287.323 139.821 287.427 139.929C287.666 140.182 287.915 140.428 288.172 140.652C288.28 140.753 288.388 140.855 288.5 140.952C288.612 141.05 288.746 141.166 288.862 141.267C288.876 141.282 288.891 141.295 288.909 141.307C289.017 141.4 289.129 141.491 289.241 141.574C289.353 141.657 289.497 141.773 289.627 141.87C291.803 143.475 294.33 144.537 296.998 144.97C299.666 145.403 302.398 145.193 304.969 144.358L305.041 144.332L305.428 144.199C305.558 144.152 305.684 144.105 305.814 144.05H305.854H305.879H305.908C306.58 143.78 307.233 143.469 307.866 143.118V143.118Z" fill="black"/>
<path id="Vector_12" d="M309.925 134.731C309.976 137.658 309.264 140.549 307.859 143.118C307.242 143.46 306.605 143.764 305.952 144.029H305.923H305.897H305.858L305.471 144.177L305.085 144.311L305.012 144.336C302.442 145.172 299.71 145.384 297.042 144.953C294.375 144.523 291.848 143.462 289.671 141.86C289.541 141.762 289.411 141.664 289.284 141.563L288.952 141.296C288.935 141.284 288.919 141.271 288.905 141.256C288.778 141.155 288.656 141.05 288.544 140.941L288.215 140.641C287.959 140.406 287.709 140.16 287.471 139.918C287.366 139.81 287.261 139.698 287.16 139.582C286.896 139.293 286.644 138.993 286.405 138.685C286.319 138.581 286.235 138.472 286.156 138.364C285.993 138.147 285.834 137.923 285.683 137.695C285.607 137.583 285.531 137.471 285.459 137.355C285.387 137.239 285.311 137.124 285.242 136.994C285.173 136.863 285.101 136.759 285.033 136.632C284.964 136.506 284.895 136.394 284.83 136.271C284.765 136.148 284.704 136.028 284.639 135.909C284.516 135.667 284.397 135.417 284.278 135.168C284.241 135.085 284.202 135.002 284.166 134.915C283.924 134.358 283.715 133.789 283.537 133.209C283.486 133.05 283.439 132.891 283.396 132.728C283.353 132.565 283.335 132.504 283.306 132.392C283.277 132.28 283.255 132.193 283.23 132.088C283.205 131.983 283.176 131.842 283.147 131.726C283.118 131.611 283.085 131.419 283.057 131.264C283.028 131.108 282.999 130.938 282.973 130.772C282.948 130.606 282.923 130.411 282.905 130.255C282.887 130.1 282.865 129.915 282.851 129.742C282.836 129.568 282.822 129.431 282.815 129.272C282.813 129.249 282.813 129.226 282.815 129.203C282.815 129.098 282.815 128.997 282.815 128.892C282.815 128.787 282.815 128.711 282.815 128.621C282.815 128.531 282.815 128.328 282.815 128.184C282.81 125.344 283.521 122.549 284.881 120.057C287.447 118.67 290.326 117.968 293.242 118.018C296.157 118.068 299.011 118.869 301.527 120.344C304.044 121.818 306.138 123.916 307.609 126.436C309.08 128.956 309.878 131.813 309.925 134.731Z" fill="#82391D"/>
</g>
<path id="Progress1" d="M305.012 144.354C304.711 144.458 304.421 144.591 304.145 144.752H304.12C302.729 145.558 300.811 147.246 299.352 150.735C298.228 153.428 297.376 157.198 297.242 162.466V229.316C296.173 229.384 295.089 229.443 293.991 229.493H293.814L292.626 229.544L291.589 229.584H291.058C289.478 229.629 287.879 229.659 286.261 229.674H284.639C280.792 229.674 277.053 229.569 273.441 229.367V162.39C273.632 154.578 276.948 149.636 280.535 146.57C283.178 144.321 286.305 142.712 289.671 141.87C291.847 143.475 294.373 144.537 297.041 144.97C299.709 145.403 302.442 145.193 305.012 144.358V144.354Z" fill="#82391D"/>
</g>
</svg>
