<svg width="560" height="315" viewBox="0 0 560 315" fill="none" xmlns="http://www.w3.org/2000/svg">
<g id="preloader">
<rect id="Rectangle 5" width="560" height="315" fill="#C29069"/>
<g id="Layer 1">
<g id="plate">
<path id="Vector" d="M352.55 264.031C340.193 271.33 340.193 272.425 352.35 267.14C349.405 269.109 346.266 270.77 342.984 272.096L342.693 272.217C333.269 276.111 320.524 279.151 305.844 280.859L287.142 281.184C260.975 281.548 234.807 277.899 221.723 273.155C208.64 268.41 206.823 267.316 199.554 261.476C192.441 255.765 200.215 246.835 200.557 246.452C206.797 241.291 217.933 236.919 232.136 233.916C245.154 231.146 260.738 229.544 277.5 229.544C294.323 229.544 309.973 231.16 323.02 233.923C335.439 236.565 345.503 240.255 351.979 244.598H351.997C352.513 245.12 364.645 256.885 352.55 264.031Z" fill="#ACB1BA"/>
<path id="Vector_2" d="M277.682 278.994C293.94 278.994 307.12 276.134 307.12 272.607C307.12 269.08 293.94 266.221 277.682 266.221C261.423 266.221 248.243 269.08 248.243 272.607C248.243 276.134 261.423 278.994 277.682 278.994Z" fill="#989EA8"/>
<path id="Vector_3" d="M305.848 280.859C296.437 281.941 286.972 282.476 277.5 282.461C250.097 282.461 225.816 278.176 210.813 271.582C200.869 267.202 195 261.827 195 256.002C195 252.634 196.966 249.411 200.546 246.452C200.204 246.835 192.431 255.765 199.543 261.476C206.812 267.316 208.629 268.41 221.713 273.155C234.796 277.899 260.964 281.548 287.131 281.184L305.848 280.859Z" fill="#DBDFE6"/>
<path id="Vector_4" d="M360 256.002C360 259.98 357.263 263.75 352.368 267.133C340.204 272.418 340.215 271.319 352.568 264.024C364.663 256.878 352.531 245.112 352.015 244.616C357.129 248.068 360 251.926 360 256.002Z" fill="#C4C9D1"/>
<path id="Vector_5" d="M342.693 272.217L342.373 272.425C342.13 272.585 330.936 279.95 309.072 284.231C298.546 286.249 287.852 287.245 277.137 287.205C266.579 287.245 256.044 286.254 245.678 284.245C222.923 279.753 211.115 271.728 211.115 271.728L211.009 271.684L210.813 271.596C225.816 278.176 250.097 282.461 277.5 282.461C286.972 282.476 296.437 281.941 305.848 280.859V280.859C320.534 279.136 333.269 276.111 342.693 272.217Z" fill="#838690"/>
<path id="Vector_6" d="M309.064 284.234C308.835 284.428 301.294 290.614 277.682 290.614C253.695 290.614 245.678 284.231 245.678 284.231C256.043 286.244 266.579 287.24 277.137 287.205C287.849 287.246 298.541 286.251 309.064 284.234V284.234Z" fill="#43474D"/>
</g>
<g id="cup">
<path id="Vector_7" d="M330.198 202.538C329.987 205.727 328.912 217.705 323.02 233.923C318.404 246.544 312.173 258.508 304.485 269.516L304.249 269.845C302.259 272.526 299.409 274.436 296.181 275.253C288.021 277.344 271.849 280.275 257.715 275.468C254.949 274.509 252.593 272.629 251.038 270.14C250.995 270.075 250.951 270.005 250.911 269.936C246.31 262.642 242.077 255.121 238.227 247.4C236.283 243.485 234.364 239.324 232.616 235.069C232.456 234.678 232.296 234.284 232.14 233.894C227.796 223.088 224.638 211.749 225.031 202.202C225.089 200.662 225.255 199.127 225.529 197.611L236.337 197.49L264.416 197.18L288.359 196.917L316.399 196.607L328.545 196.472C328.657 196.509 330.562 197.22 330.198 202.538Z" fill="#CBD1DB" fill-opacity="0.7"/>
<path id="Vector_8" d="M328.745 197.611C328.745 203.815 311.463 208.972 288.359 210.26C284.747 210.461 280.993 210.566 277.137 210.566C272.746 210.566 268.487 210.428 264.416 210.169C242.065 208.742 225.529 203.665 225.529 197.611C225.535 197.021 225.684 196.443 225.965 195.925C228.705 190.629 244.177 186.338 264.416 185.053C268.483 184.794 272.746 184.655 277.137 184.655C280.993 184.655 284.747 184.761 288.359 184.965C310.031 186.17 326.578 190.805 328.545 196.472C328.676 196.837 328.743 197.223 328.745 197.611Z" fill="#E1E7F1"/>
</g>
<g id="handle">
<path id="Vector_9" d="M228.956 240.306C230.728 241.514 232.708 242.381 234.796 242.861C234.796 242.861 220.259 231.547 211.536 218.774C202.912 206.147 213.957 197.363 214.208 197.166C219.626 195.085 225.961 195.925 225.961 195.925C225.681 196.443 225.531 197.021 225.525 197.611C225.25 199.13 225.082 200.666 225.023 202.209C213.622 196.771 211.718 203.267 213.172 212.756C214.626 222.164 232.31 234.861 232.612 235.076C234.36 239.331 236.279 243.492 238.223 247.408C234.764 244.911 231.685 242.536 228.956 240.306Z" fill="#C8CED2" fill-opacity="0.7"/>
<path id="Vector_10" d="M234.796 242.864C232.708 242.384 230.728 241.518 228.956 240.31L227.782 239.339C220.811 233.54 216.261 228.792 213.47 225.529C210.262 221.816 208.059 217.337 207.073 212.523C205.223 203.249 209.345 199.02 214.208 197.173C213.957 197.37 202.912 206.154 211.536 218.781C220.259 231.551 234.796 242.864 234.796 242.864Z" fill="#D5DCE4" fill-opacity="0.7"/>
</g>
</g>
</g>
</svg>
